<svg xmlns="http://www.w3.org/2000/svg" width="24" height="24" viewBox="0 0 24 24" fill="#FF0000">
  <path d="M12.48 3C9.86 3.1 7 4.24 7 8.69c0 4.15-1.47 5.14-2.5 6.32C3.54 16.17 3 17.89 3 19.69c0 .34.03.67.08 1 .38-.24.79-.44 1.21-.6.8-.31 1.67-.47 2.71-.47 2.75 0 5.5 1.08 8 1.08 2.5 0 4.24-1.08 7-1.08 1.04 0 1.91.16 2.71.47.42.16.83.36 1.21.6.05-.33.08-.66.08-1 0-1.8-.54-3.52-1.5-4.68-1.03-1.18-2.5-2.17-2.5-6.32 0-4.45-2.86-5.59-5.48-5.69-1.18-.05-2.32.15-3.04.6-.72-.45-1.86-.65-3.04-.6z"/>
</svg>
